<svg width="543" height="459" viewBox="0 0 543 459" fill="none" xmlns="http://www.w3.org/2000/svg">
<rect width="543" height="459" fill="#E5E5E5"/>
<rect width="543" height="459" fill="url(#paint0_angular)"/>
<path d="M407.934 102.734L369.34 141.945L389.008 161.927C395.984 169.015 395.984 180.477 389.008 187.489L376.094 200.61C384.852 220.291 389.75 242.158 389.75 265.157C389.75 351.798 320.652 422 235.375 422C150.098 422 81 351.873 81 265.232C81 178.592 150.098 108.389 235.375 108.389C258.012 108.389 279.535 113.366 298.906 122.264L311.82 109.143C318.797 102.055 330.078 102.055 336.98 109.143L356.648 129.126L395.242 89.9148L407.934 102.734ZM452.094 81.2432H434.281C429.383 81.2432 425.375 85.3151 425.375 90.2919C425.375 95.2686 429.383 99.3405 434.281 99.3405H452.094C456.992 99.3405 461 95.2686 461 90.2919C461 85.3151 456.992 81.2432 452.094 81.2432ZM407.562 36C402.664 36 398.656 40.0719 398.656 45.0486V63.1459C398.656 68.1227 402.664 72.1946 407.562 72.1946C412.461 72.1946 416.469 68.1227 416.469 63.1459V45.0486C416.469 40.0719 412.461 36 407.562 36ZM432.723 77.4729L445.34 64.654C448.828 61.11 448.828 55.3792 445.34 51.8351C441.852 48.2911 436.211 48.2911 432.723 51.8351L420.105 64.654C416.617 68.1981 416.617 73.9289 420.105 77.4729C423.668 81.017 429.309 81.017 432.723 77.4729ZM382.402 77.4729C385.891 81.017 391.531 81.017 395.02 77.4729C398.508 73.9289 398.508 68.1981 395.02 64.654L382.402 51.8351C378.914 48.2911 373.273 48.2911 369.785 51.8351C366.297 55.3792 366.297 61.11 369.785 64.654L382.402 77.4729ZM432.723 103.111C429.234 99.5667 423.594 99.5667 420.105 103.111C416.617 106.655 416.617 112.386 420.105 115.93L432.723 128.749C436.211 132.293 441.852 132.293 445.34 128.749C448.828 125.205 448.828 119.474 445.34 115.93L432.723 103.111ZM164.125 241.103C164.125 214.484 185.426 192.843 211.625 192.843C218.156 192.843 223.5 187.414 223.5 180.778C223.5 174.143 218.156 168.713 211.625 168.713C172.363 168.713 140.375 201.213 140.375 241.103C140.375 247.738 145.719 253.167 152.25 253.167C158.781 253.167 164.125 247.738 164.125 241.103Z" fill="black"/>
<defs>
<radialGradient id="paint0_angular" cx="0" cy="0" r="1" gradientUnits="userSpaceOnUse" gradientTransform="translate(271.5 229.5) rotate(62.221) scale(233.016 284.918)">
<stop offset="0.0182672" stop-color="#F1B313" stop-opacity="0"/>
<stop offset="0.331085" stop-color="#F1B313"/>
<stop offset="0.805158" stop-color="#F1B313" stop-opacity="0.86"/>
</radialGradient>
</defs>
</svg>
