<svg width="719" height="104" viewBox="0 0 719 104" fill="none" xmlns="http://www.w3.org/2000/svg">
<path d="M108.606 18.141L99.2608 43.9197C99.07 44.4385 98.464 44.7182 97.9088 44.5425L79.5658 38.7051C79.2981 38.6196 79.0825 38.4405 78.9573 38.2001C78.8297 37.9633 78.8123 37.694 78.9028 37.441L78.9053 37.4375L88.249 11.6634C88.3407 11.4092 88.5303 11.207 88.7869 11.0903C89.0397 10.9713 89.3284 10.9528 89.5998 11.0406L107.94 16.8781C108.494 17.0549 108.792 17.6199 108.606 18.141ZM73.5543 35.8938H76.5941L85.6764 10.8465C86.0036 9.94867 86.6777 9.22534 87.5836 8.80821C88.4882 8.38877 89.5155 8.32638 90.4697 8.63258L93.9854 9.75108V7.67353C93.9854 7.12584 93.5108 6.67751 92.9246 6.67751H73.5543C72.9669 6.67751 72.491 7.12584 72.491 7.67353V34.9001C72.491 35.4478 72.9681 35.8938 73.5543 35.8938ZM78.6946 41.1142C77.7392 40.8115 76.9646 40.176 76.5198 39.329C76.371 39.0425 76.267 38.7455 76.2038 38.4393H73.5543C71.4711 38.4393 69.7746 36.8505 69.7746 34.9012V13.1805C59.8199 16.5569 58.4432 17.026 58.1966 17.0884L58.3106 17.0687C58.0478 17.16 57.831 17.3426 57.7133 17.5841C57.5906 17.8233 57.5794 18.096 57.6773 18.3455L67.5651 43.944C67.663 44.1936 67.8576 44.3935 68.1153 44.5079C68.3718 44.6188 68.6606 44.6304 68.9283 44.5414L78.8681 41.1709C78.7628 41.1339 78.6946 41.1142 78.6946 41.1142ZM3.52684 67.5943L18.1931 56.2926C19.5674 55.1059 22.0644 54.415 24.1736 54.3803C24.7015 54.3491 25.2307 54.3803 25.6507 54.4462L42.3208 57.247C43.4113 57.4446 44.9951 58.3031 45.2764 59.6192V60.3449C45.1723 60.9041 44.7844 61.5627 44.0458 62.2549L32.0861 73.3278C29.3796 75.7347 26.9519 76.755 24.1736 76.5574C23.5032 76.525 22.8018 76.3933 22.0644 76.1957L3.77468 71.516C1.48831 70.9221 1.90841 68.8804 3.52684 67.5943ZM19.5314 66.4747C20.1288 67.3297 22.2392 67.4615 24.1736 67.101C24.7709 67.0027 25.3694 66.8699 25.8974 66.6388C28.0772 65.8808 29.9769 64.0678 28.4303 62.687C27.4786 61.862 25.7226 61.8955 24.1736 62.1913C23.1884 62.4213 22.3098 62.687 21.71 62.9493C20.1969 63.6391 18.7198 65.3227 19.5314 66.4747ZM27.5492 101.57L26.5988 101.206L22.2045 99.5607L13.4084 96.2641H13.375L12.2138 95.8354C10.7714 95.3085 9.3289 93.5291 8.44905 91.8813C8.34495 91.6514 8.27432 91.4873 8.16774 91.2874L2.05092 76.9214C1.59364 75.8988 -0.130119 71.6813 4.05599 72.9327L8.45028 74.1193L13.3762 75.3719H13.4097L21.078 77.3824C21.4634 77.4795 21.8513 77.6123 22.2045 77.7117C24.4165 78.3357 25.6842 78.9319 26.5988 80.0492C27.3386 81.0048 27.8318 82.3232 28.4626 84.3673L33.1419 99.3272C33.2113 99.5919 33.246 99.823 33.246 100.022V100.351C33.1059 102.493 29.449 102.293 27.5492 101.57ZM8.45028 81.831C9.50363 82.4584 10.7007 82.8524 11.4058 82.292C12.6005 81.3376 11.3364 79.4253 10.07 77.9752C9.57798 77.4171 9.04883 76.9214 8.45028 76.5574C7.46634 75.8988 6.37582 75.6018 5.53191 76.1299C4.22948 76.9214 5.71036 79.4912 6.6943 80.5114C7.08094 80.9078 7.74764 81.4358 8.45028 81.831ZM14.7133 90.3007C14.3255 89.9043 13.8682 89.5403 13.4097 89.2445C13.4097 89.2445 13.4097 89.2445 13.3762 89.2445C12.3898 88.5848 11.3699 88.2219 10.5619 88.7488C9.39953 89.4745 10.9486 91.8143 11.9684 92.7029C12.3216 93.001 12.8508 93.4285 13.3774 93.7578C13.4109 93.7578 13.4109 93.7578 13.4109 93.7578C14.3961 94.3841 15.5548 94.8128 16.2599 94.2882C17.3492 93.4955 16.0492 91.5208 14.7133 90.3007ZM22.2057 86.1802C23.4016 86.8053 24.7362 87.1346 25.5442 86.5084C26.8801 85.4534 25.5107 83.5099 24.0311 81.8298C23.5019 81.2359 22.8699 80.709 22.2045 80.382C21.078 79.7534 19.8809 79.557 18.9292 80.1486C17.4186 81.0383 19.1423 83.5423 20.1622 84.6631C20.586 85.1576 21.3568 85.7504 22.2057 86.1802ZM28.0412 94.584C27.6546 94.2894 27.1638 93.9254 26.6 93.6273C25.5107 93.068 24.3471 92.7041 23.5032 93.2656C22.1685 94.0571 23.8551 96.4282 24.8775 97.3837C25.3 97.7142 25.8961 98.1752 26.6 98.5704C27.724 99.1655 29.0276 99.5919 29.7662 99.0638C30.9484 98.2215 29.1677 95.5061 28.0412 94.584ZM53.1194 80.9078V81.5352C53.086 83.7433 52.2743 85.6221 50.3411 87.7944L48.3013 90.0349L45.5564 93.0992L42.2514 96.7921L39.649 99.6577C39.4012 99.9547 39.1571 100.219 38.908 100.382C37.6774 101.402 36.3403 101.042 35.3923 99.9535C34.8644 99.3272 34.4059 98.5357 34.1258 97.549L29.6225 82.7519C29.413 82.0933 29.3077 81.4335 29.2705 80.7737V80.2156C29.3424 78.5032 30.1157 76.7538 31.8047 75.1396L35.3935 71.8765L38.9092 68.6169L42.2514 65.5168L44.9951 62.9805C45.1723 62.7829 45.3817 62.6512 45.5564 62.486C46.5416 61.8262 47.4909 61.728 48.3013 62.122C49.1775 62.5541 49.8479 63.4751 50.0933 64.7912L52.7663 78.1392C52.9782 79.126 53.1194 80.0504 53.1194 80.9078ZM37.7853 81.3376C38.4507 79.3271 38.6626 76.4938 36.9042 75.7659C36.3775 75.5706 35.8855 75.6365 35.3935 75.8988C34.1977 76.4938 33.1766 78.1404 32.8259 79.163C32.3686 80.5449 32.122 83.6751 33.8098 84.3026C34.3365 84.4655 34.8669 84.4008 35.3935 84.2355C36.4134 83.7745 37.3267 82.6548 37.7853 81.3376ZM40.3505 89.1775C39.8585 88.9499 39.4012 89.0134 38.9092 89.3104C37.9253 89.9378 37.0789 91.4203 36.6923 92.3747C36.1656 93.7243 35.9549 96.5945 37.3627 97.0544C37.8906 97.1873 38.4173 97.0891 38.9092 96.7921C39.7544 96.3311 40.493 95.3073 40.9849 94.0895C41.7582 92.146 41.8995 89.9055 40.3505 89.1775ZM43.482 77.513C43.0594 77.3177 42.6381 77.3824 42.2527 77.6123C41.1968 78.1716 40.3517 79.8517 39.9651 80.8731C39.5103 82.225 39.4731 85.1253 40.8796 85.4892C41.3356 85.5886 41.8288 85.5204 42.2514 85.2893C43.1325 84.7983 43.9033 83.7433 44.3593 82.4238C45.0298 80.4456 45.0669 78.1716 43.482 77.513ZM45.5577 73.8559C46.5429 73.4284 47.3174 72.2082 47.74 70.758C48.336 68.7475 48.056 66.44 46.5788 65.8808C46.2281 65.749 45.8737 65.7837 45.5577 65.9478C44.5006 66.4747 43.6232 68.2865 43.3097 69.3738C42.8847 70.758 43.0259 73.7242 44.4696 74.02C44.8563 74.0858 45.2057 74.02 45.5577 73.8559ZM49.6397 79.0625C49.2146 78.8649 48.7586 78.9966 48.3026 79.3259C47.4215 79.9857 46.5429 81.4347 46.2628 82.2909C45.8402 83.5758 45.8068 86.1802 47.0695 86.5084C47.4921 86.6066 47.9147 86.543 48.3026 86.3431C49.1452 85.9156 49.8764 84.9023 50.2717 83.7086C50.8702 81.8957 50.8702 79.6564 49.6397 79.0625ZM55.5 0V52H0V0H55.5ZM45.9493 27.1145C45.9493 14.7936 35.2386 4.74902 22.0533 4.74902C23.3916 5.81783 24.0385 7.2125 24.0385 8.88794C24.0385 10.0966 23.9394 10.9817 23.0967 11.9569C21.8067 13.3978 20.2663 14.6538 18.8784 16.0011C16.3962 18.4183 13.9165 20.8841 11.4331 23.3025C10.2434 24.4661 9.54824 25.58 9.54824 27.2069C9.54824 30.136 12.1295 32.5105 15.2065 32.5105C18.5314 32.5105 22.8476 28.3231 25.6768 28.3231C27.1143 28.3231 28.3535 29.4404 28.3535 30.7866C28.3535 31.4371 28.0548 32.135 27.5096 32.5545L18.3319 39.7623C16.447 41.2494 15.4048 43.8331 15.4048 46.0643H44.3606V43.647C44.3606 41.9 45.0558 40.042 45.3049 38.2718C45.803 34.6031 45.9493 30.8351 45.9493 27.1145ZM24.5354 15.5839C23.492 15.5839 22.5998 16.4217 22.5998 17.3957C22.5998 18.3733 23.492 19.2098 24.5354 19.2098C25.6284 19.2098 26.5207 18.3733 26.5207 17.3957C26.5194 16.4217 25.6284 15.5839 24.5354 15.5839ZM111 52V104H55.5V52H111ZM66.8736 65.5757C66.8736 70.0301 68.699 72.3283 73.6076 72.3283H92.0906C97.0017 72.3283 98.8754 70.0312 98.8754 65.5757V59.4112H92.4785V65.533H86.0903V59.4112H79.6079V65.533H73.2234V59.4112H66.8749V65.5757H66.8736ZM72.6905 74.4001V91.0009H93.1997V74.4001H72.6905ZM99.9783 95.8562L93.2939 93.2887H72.7389L66.7274 95.8562V98.1937H99.9771V95.8562H99.9783Z" fill="white"/>
<path d="M212.977 11.4062L207.117 15.7891L208.031 38.5938L212.742 40.75L198.469 43.7266L204.281 38.5938L200.438 20.0078L195.211 40.75L183.891 21.8828L180.82 38.875L185.32 42.6719L173.414 43.2812L178.125 39.0156L179.578 14.5469L174.633 11.4062L186.188 10.8438L193.969 32.8281L199.922 11.0781L212.977 11.4062ZM213.539 31.2344C213.539 29.4844 213.812 27.8672 214.359 26.3828C214.922 24.8828 215.695 23.5859 216.68 22.4922C217.68 21.3984 218.859 20.5469 220.219 19.9375C221.594 19.3125 223.094 19 224.719 19C226.297 19 227.742 19.2969 229.055 19.8906C230.367 20.4688 231.508 21.2891 232.477 22.3516C233.445 23.4141 234.219 24.6875 234.797 26.1719C235.375 27.6562 235.719 29.2969 235.828 31.0938C235.938 33.0156 235.734 34.7578 235.219 36.3203C234.719 37.8672 233.977 39.1875 232.992 40.2812C232.008 41.3594 230.828 42.1953 229.453 42.7891C228.094 43.3828 226.617 43.6797 225.023 43.6797C223.492 43.6797 222.031 43.4062 220.641 42.8594C219.266 42.2969 218.047 41.4844 216.984 40.4219C215.938 39.3594 215.102 38.0625 214.477 36.5312C213.852 34.9844 213.539 33.2188 213.539 31.2344ZM219.305 31.6328C219.305 33.0078 219.5 34.25 219.891 35.3594C220.281 36.4688 220.805 37.4141 221.461 38.1953C222.117 38.9609 222.875 39.5547 223.734 39.9766C224.594 40.3984 225.5 40.6094 226.453 40.6094C227.406 40.6094 228.297 40.4062 229.125 40C229.953 39.5781 230.672 38.9922 231.281 38.2422C231.891 37.4766 232.367 36.5625 232.711 35.5C233.055 34.4375 233.227 33.2578 233.227 31.9609C233.227 30.6797 233.055 29.4766 232.711 28.3516C232.367 27.2109 231.883 26.2188 231.258 25.375C230.648 24.5312 229.922 23.8672 229.078 23.3828C228.234 22.8984 227.312 22.6562 226.312 22.6562C225.422 22.6562 224.555 22.8594 223.711 23.2656C222.883 23.6719 222.141 24.2656 221.484 25.0469C220.828 25.8125 220.297 26.75 219.891 27.8594C219.5 28.9688 219.305 30.2266 219.305 31.6328ZM258.07 40.0703L263.25 41.9922L254.766 43.6328L254.859 39.0625C254.484 39.7031 254.055 40.3203 253.57 40.9141C253.086 41.4922 252.539 42.0078 251.93 42.4609C251.336 42.9141 250.672 43.2734 249.938 43.5391C249.203 43.8203 248.406 43.9609 247.547 43.9609C246.328 43.9297 245.172 43.6562 244.078 43.1406C243 42.625 242.047 41.8906 241.219 40.9375C240.406 39.9688 239.758 38.7891 239.273 37.3984C238.805 35.9922 238.57 34.3906 238.57 32.5938C238.57 30.4062 238.828 28.4922 239.344 26.8516C239.859 25.2109 240.562 23.8438 241.453 22.75C242.344 21.6562 243.383 20.8359 244.57 20.2891C245.773 19.7422 247.055 19.4688 248.414 19.4688C249.789 19.4688 251.062 19.7656 252.234 20.3594C253.422 20.9375 254.391 21.7188 255.141 22.7031L255.234 17.1719L249.516 15.0156L261.094 12.9531L258.07 40.0703ZM248.273 40.9844C248.32 40.9844 248.477 40.9688 248.742 40.9375C249.008 40.9062 249.336 40.8281 249.727 40.7031C250.117 40.5625 250.547 40.3594 251.016 40.0938C251.5 39.8281 251.977 39.4609 252.445 38.9922C252.93 38.5078 253.391 37.9062 253.828 37.1875C254.266 36.4688 254.641 35.5938 254.953 34.5625L255.094 26.9219C254.859 26.3594 254.562 25.8203 254.203 25.3047C253.859 24.7891 253.469 24.3359 253.031 23.9453C252.609 23.5391 252.133 23.2188 251.602 22.9844C251.086 22.7344 250.539 22.6094 249.961 22.6094C248.883 22.6094 247.961 22.875 247.195 23.4062C246.445 23.9375 245.82 24.6719 245.32 25.6094C244.836 26.5469 244.477 27.6562 244.242 28.9375C244.023 30.2188 243.914 31.6094 243.914 33.1094C243.914 34.2188 244.008 35.2578 244.195 36.2266C244.383 37.1797 244.656 38.0078 245.016 38.7109C245.375 39.4141 245.828 39.9688 246.375 40.375C246.922 40.7812 247.555 40.9844 248.273 40.9844ZM269.414 34.3984C269.617 35.2734 269.891 36.1328 270.234 36.9766C270.578 37.8047 271 38.5469 271.5 39.2031C272 39.8594 272.578 40.3906 273.234 40.7969C273.891 41.2031 274.633 41.4062 275.461 41.4062C276.555 41.4062 277.508 41.1797 278.32 40.7266C279.133 40.2734 279.797 39.7031 280.312 39.0156C280.828 38.3125 281.188 37.5469 281.391 36.7188C281.594 35.875 281.633 35.0703 281.508 34.3047C281.945 34.4766 282.305 34.7031 282.586 34.9844C282.883 35.2656 283.109 35.5781 283.266 35.9219C283.438 36.25 283.555 36.5938 283.617 36.9531C283.68 37.2969 283.711 37.6328 283.711 37.9609C283.711 38.7109 283.492 39.4375 283.055 40.1406C282.617 40.8281 282 41.4453 281.203 41.9922C280.422 42.5234 279.492 42.9531 278.414 43.2812C277.336 43.6094 276.156 43.7734 274.875 43.7734C273.156 43.7734 271.617 43.4375 270.258 42.7656C268.914 42.0938 267.773 41.1875 266.836 40.0469C265.898 38.8906 265.18 37.5391 264.68 35.9922C264.18 34.4453 263.93 32.7969 263.93 31.0469C263.93 29.2656 264.18 27.625 264.68 26.125C265.18 24.6094 265.914 23.3203 266.883 22.2578C267.867 21.1953 269.07 20.3906 270.492 19.8438C271.914 19.2969 273.555 19.0781 275.414 19.1875C276.695 19.2812 277.875 19.6484 278.953 20.2891C280.031 20.9297 280.969 21.7578 281.766 22.7734C282.578 23.7734 283.227 24.9219 283.711 26.2188C284.211 27.5156 284.516 28.8672 284.625 30.2734L269.414 34.3984ZM268.969 30.625C268.969 30.8438 268.969 31.0625 268.969 31.2812C268.969 31.4844 268.984 31.6953 269.016 31.9141L279.305 28.1641C278.961 27.0391 278.57 26.0781 278.133 25.2812C277.711 24.4688 277.266 23.8047 276.797 23.2891C276.328 22.7734 275.852 22.3984 275.367 22.1641C274.898 21.9141 274.445 21.7891 274.008 21.7891C273.352 21.7891 272.773 21.9141 272.273 22.1641C271.773 22.4141 271.336 22.7578 270.961 23.1953C270.602 23.6172 270.289 24.1172 270.023 24.6953C269.773 25.2734 269.57 25.8906 269.414 26.5469C269.258 27.2031 269.141 27.8828 269.062 28.5859C269 29.2734 268.969 29.9531 268.969 30.625ZM303.281 27.0156C303.141 26.4375 302.938 25.9453 302.672 25.5391C302.422 25.1328 302.133 24.7969 301.805 24.5312C301.492 24.25 301.156 24.0391 300.797 23.8984C300.438 23.7422 300.078 23.625 299.719 23.5469C298.875 23.375 297.977 23.3828 297.023 23.5703C296.695 23.6797 296.344 23.8516 295.969 24.0859C295.641 24.3047 295.266 24.6016 294.844 24.9766C294.422 25.3359 293.969 25.8203 293.484 26.4297L293.906 40.0234L298.125 42.1328L285.703 43.2344L288.914 39.9766L290.227 23.6641L285.234 21.3906L293.297 19.8672L293.391 22.7969C293.938 22.1406 294.5 21.6016 295.078 21.1797C295.656 20.7578 296.18 20.4141 296.648 20.1484C297.195 19.8516 297.727 19.625 298.242 19.4688C299.18 19.25 300.133 19.1641 301.102 19.2109C301.508 19.2266 301.93 19.2734 302.367 19.3516C302.82 19.4297 303.273 19.5547 303.727 19.7266C304.195 19.8828 304.648 20.1016 305.086 20.3828C305.523 20.6484 305.945 20.9844 306.352 21.3906L303.281 27.0156ZM328.43 28.4453C328.43 29.3203 328.391 30.2422 328.312 31.2109C328.234 32.1797 328.117 33.1484 327.961 34.1172C327.805 35.0859 327.609 36.0312 327.375 36.9531C327.156 37.875 326.898 38.7188 326.602 39.4844L331.219 40.9844L319.008 43.375L323.156 40.2578C323.484 39.0547 323.703 37.8984 323.812 36.7891C323.938 35.6797 324 34.6328 324 33.6484C324 33.0547 323.977 32.3828 323.93 31.6328C323.898 30.8672 323.812 30.0938 323.672 29.3125C323.547 28.5312 323.359 27.7656 323.109 27.0156C322.875 26.2656 322.562 25.6016 322.172 25.0234C321.781 24.4297 321.297 23.9609 320.719 23.6172C320.156 23.2578 319.477 23.0781 318.68 23.0781C317.758 23.0781 316.82 23.3828 315.867 23.9922C314.914 24.6016 314.031 25.5 313.219 26.6875V39.6484L317.086 42.4141L305.484 43.2344L308.555 39.8359L310.195 22.7969L305.203 20.3359L313.219 19.5391V23.0781C313.672 22.4531 314.172 21.8672 314.719 21.3203C315.266 20.7734 315.844 20.3047 316.453 19.9141C317.062 19.5078 317.695 19.1953 318.352 18.9766C319.023 18.7422 319.711 18.625 320.414 18.625C321.773 18.625 322.953 18.875 323.953 19.375C324.953 19.875 325.781 20.5703 326.438 21.4609C327.109 22.3359 327.609 23.375 327.938 24.5781C328.266 25.7656 328.43 27.0547 328.43 28.4453ZM382.477 11.4062L376.617 15.7891L377.531 38.5938L382.242 40.75L367.969 43.7266L373.781 38.5938L369.938 20.0078L364.711 40.75L353.391 21.8828L350.32 38.875L354.82 42.6719L342.914 43.2812L347.625 39.0156L349.078 14.5469L344.133 11.4062L355.688 10.8438L363.469 32.8281L369.422 11.0781L382.477 11.4062ZM382.758 43.2344L386.438 40.3516L385.641 24.1797L381.305 21.3438L391.383 19.6328L389.578 38.4297L394.617 41.5703L382.758 43.2344ZM391.641 13.9609C391.641 14.4297 391.547 14.875 391.359 15.2969C391.172 15.7031 390.914 16.0703 390.586 16.3984C390.258 16.7109 389.883 16.9609 389.461 17.1484C389.039 17.3203 388.594 17.4062 388.125 17.4062C387.625 17.4062 387.156 17.3203 386.719 17.1484C386.297 16.9609 385.93 16.7109 385.617 16.3984C385.305 16.0703 385.055 15.7031 384.867 15.2969C384.68 14.875 384.586 14.4297 384.586 13.9609C384.586 13.4766 384.68 13.0312 384.867 12.625C385.055 12.2031 385.305 11.8359 385.617 11.5234C385.93 11.2109 386.297 10.9687 386.719 10.7969C387.156 10.6094 387.625 10.5156 388.125 10.5156C388.594 10.5156 389.039 10.6094 389.461 10.7969C389.883 10.9687 390.258 11.2109 390.586 11.5234C390.914 11.8359 391.172 12.2031 391.359 12.625C391.547 13.0312 391.641 13.4766 391.641 13.9609ZM416.789 28.4453C416.789 29.3203 416.75 30.2422 416.672 31.2109C416.594 32.1797 416.477 33.1484 416.32 34.1172C416.164 35.0859 415.969 36.0312 415.734 36.9531C415.516 37.875 415.258 38.7188 414.961 39.4844L419.578 40.9844L407.367 43.375L411.516 40.2578C411.844 39.0547 412.062 37.8984 412.172 36.7891C412.297 35.6797 412.359 34.6328 412.359 33.6484C412.359 33.0547 412.336 32.3828 412.289 31.6328C412.258 30.8672 412.172 30.0938 412.031 29.3125C411.906 28.5312 411.719 27.7656 411.469 27.0156C411.234 26.2656 410.922 25.6016 410.531 25.0234C410.141 24.4297 409.656 23.9609 409.078 23.6172C408.516 23.2578 407.836 23.0781 407.039 23.0781C406.117 23.0781 405.18 23.3828 404.227 23.9922C403.273 24.6016 402.391 25.5 401.578 26.6875V39.6484L405.445 42.4141L393.844 43.2344L396.914 39.8359L398.555 22.7969L393.562 20.3359L401.578 19.5391V23.0781C402.031 22.4531 402.531 21.8672 403.078 21.3203C403.625 20.7734 404.203 20.3047 404.812 19.9141C405.422 19.5078 406.055 19.1953 406.711 18.9766C407.383 18.7422 408.07 18.625 408.773 18.625C410.133 18.625 411.312 18.875 412.312 19.375C413.312 19.875 414.141 20.5703 414.797 21.4609C415.469 22.3359 415.969 23.375 416.297 24.5781C416.625 25.7656 416.789 27.0547 416.789 28.4453ZM426.164 34.3984C426.367 35.2734 426.641 36.1328 426.984 36.9766C427.328 37.8047 427.75 38.5469 428.25 39.2031C428.75 39.8594 429.328 40.3906 429.984 40.7969C430.641 41.2031 431.383 41.4062 432.211 41.4062C433.305 41.4062 434.258 41.1797 435.07 40.7266C435.883 40.2734 436.547 39.7031 437.062 39.0156C437.578 38.3125 437.938 37.5469 438.141 36.7188C438.344 35.875 438.383 35.0703 438.258 34.3047C438.695 34.4766 439.055 34.7031 439.336 34.9844C439.633 35.2656 439.859 35.5781 440.016 35.9219C440.188 36.25 440.305 36.5938 440.367 36.9531C440.43 37.2969 440.461 37.6328 440.461 37.9609C440.461 38.7109 440.242 39.4375 439.805 40.1406C439.367 40.8281 438.75 41.4453 437.953 41.9922C437.172 42.5234 436.242 42.9531 435.164 43.2812C434.086 43.6094 432.906 43.7734 431.625 43.7734C429.906 43.7734 428.367 43.4375 427.008 42.7656C425.664 42.0938 424.523 41.1875 423.586 40.0469C422.648 38.8906 421.93 37.5391 421.43 35.9922C420.93 34.4453 420.68 32.7969 420.68 31.0469C420.68 29.2656 420.93 27.625 421.43 26.125C421.93 24.6094 422.664 23.3203 423.633 22.2578C424.617 21.1953 425.82 20.3906 427.242 19.8438C428.664 19.2969 430.305 19.0781 432.164 19.1875C433.445 19.2812 434.625 19.6484 435.703 20.2891C436.781 20.9297 437.719 21.7578 438.516 22.7734C439.328 23.7734 439.977 24.9219 440.461 26.2188C440.961 27.5156 441.266 28.8672 441.375 30.2734L426.164 34.3984ZM425.719 30.625C425.719 30.8438 425.719 31.0625 425.719 31.2812C425.719 31.4844 425.734 31.6953 425.766 31.9141L436.055 28.1641C435.711 27.0391 435.32 26.0781 434.883 25.2812C434.461 24.4688 434.016 23.8047 433.547 23.2891C433.078 22.7734 432.602 22.3984 432.117 22.1641C431.648 21.9141 431.195 21.7891 430.758 21.7891C430.102 21.7891 429.523 21.9141 429.023 22.1641C428.523 22.4141 428.086 22.7578 427.711 23.1953C427.352 23.6172 427.039 24.1172 426.773 24.6953C426.523 25.2734 426.32 25.8906 426.164 26.5469C426.008 27.2031 425.891 27.8828 425.812 28.5859C425.75 29.2734 425.719 29.9531 425.719 30.625ZM452.906 19.1406C453.5 19.1406 454.102 19.1953 454.711 19.3047C455.32 19.3984 455.914 19.5469 456.492 19.75C457.086 19.9375 457.641 20.1719 458.156 20.4531C458.688 20.7188 459.164 21.0156 459.586 21.3438L463.43 16.6094L461.695 28.3047C461.508 27.4922 461.18 26.6953 460.711 25.9141C460.242 25.1172 459.656 24.4062 458.953 23.7812C458.266 23.1562 457.469 22.6562 456.562 22.2812C455.656 21.8906 454.664 21.6953 453.586 21.6953C452.992 21.6953 452.422 21.7656 451.875 21.9062C451.328 22.0312 450.844 22.2422 450.422 22.5391C450.016 22.8359 449.688 23.2109 449.438 23.6641C449.203 24.1172 449.086 24.6562 449.086 25.2812C449.086 26.0312 449.289 26.6406 449.695 27.1094C450.117 27.5781 450.664 27.9766 451.336 28.3047C452.008 28.6172 452.773 28.8906 453.633 29.125C454.492 29.3438 455.375 29.5781 456.281 29.8281C457.188 30.0781 458.07 30.375 458.93 30.7188C459.789 31.0469 460.555 31.4766 461.227 32.0078C461.898 32.5391 462.438 33.2031 462.844 34C463.266 34.7812 463.477 35.75 463.477 36.9062C463.477 38.2031 463.219 39.3125 462.703 40.2344C462.203 41.1406 461.555 41.8906 460.758 42.4844C459.961 43.0625 459.078 43.4844 458.109 43.75C457.141 44.0156 456.195 44.1484 455.273 44.1484C454.523 44.1484 453.773 44.0703 453.023 43.9141C452.273 43.7578 451.547 43.5391 450.844 43.2578C450.141 42.9766 449.469 42.6406 448.828 42.25C448.203 41.8594 447.633 41.4375 447.117 40.9844L443.555 45.7422L444.656 34.1172C445.156 35.1797 445.758 36.1719 446.461 37.0938C447.164 38.0156 447.945 38.8203 448.805 39.5078C449.664 40.1797 450.586 40.7109 451.57 41.1016C452.555 41.4766 453.578 41.6641 454.641 41.6641C455.875 41.6641 456.859 41.4062 457.594 40.8906C458.344 40.3594 458.719 39.6094 458.719 38.6406C458.719 38.0156 458.508 37.5 458.086 37.0938C457.68 36.6719 457.133 36.3047 456.445 35.9922C455.773 35.6797 455.008 35.3984 454.148 35.1484C453.289 34.8984 452.406 34.625 451.5 34.3281C450.594 34.0312 449.711 33.6875 448.852 33.2969C447.992 32.8906 447.219 32.3906 446.531 31.7969C445.859 31.1875 445.312 30.4531 444.891 29.5938C444.484 28.7188 444.281 27.6641 444.281 26.4297C444.281 25.3672 444.438 24.4453 444.75 23.6641C445.062 22.8828 445.469 22.2266 445.969 21.6953C446.484 21.1484 447.055 20.7109 447.68 20.3828C448.32 20.0391 448.961 19.7812 449.602 19.6094C450.242 19.4219 450.852 19.2969 451.43 19.2344C452.008 19.1719 452.5 19.1406 452.906 19.1406ZM494.625 19.9609L491.109 22.8438L489.492 39.7422L492.75 41.8984L482.578 43.0938L484.781 40.6094L479.602 31.0938L475.805 40.5625L478.102 42.5781L468.656 43.5391L471.961 40.5156L467.883 23.5234L463.711 21.7891L476.531 19.1875L473.695 22.4453L474.703 37.0938L480.891 22.0234L485.742 36.1328L488.766 22.2578L484.055 19.7734L494.625 19.9609ZM502.102 34.3984C502.305 35.2734 502.578 36.1328 502.922 36.9766C503.266 37.8047 503.688 38.5469 504.188 39.2031C504.688 39.8594 505.266 40.3906 505.922 40.7969C506.578 41.2031 507.32 41.4062 508.148 41.4062C509.242 41.4062 510.195 41.1797 511.008 40.7266C511.82 40.2734 512.484 39.7031 513 39.0156C513.516 38.3125 513.875 37.5469 514.078 36.7188C514.281 35.875 514.32 35.0703 514.195 34.3047C514.633 34.4766 514.992 34.7031 515.273 34.9844C515.57 35.2656 515.797 35.5781 515.953 35.9219C516.125 36.25 516.242 36.5938 516.305 36.9531C516.367 37.2969 516.398 37.6328 516.398 37.9609C516.398 38.7109 516.18 39.4375 515.742 40.1406C515.305 40.8281 514.688 41.4453 513.891 41.9922C513.109 42.5234 512.18 42.9531 511.102 43.2812C510.023 43.6094 508.844 43.7734 507.562 43.7734C505.844 43.7734 504.305 43.4375 502.945 42.7656C501.602 42.0938 500.461 41.1875 499.523 40.0469C498.586 38.8906 497.867 37.5391 497.367 35.9922C496.867 34.4453 496.617 32.7969 496.617 31.0469C496.617 29.2656 496.867 27.625 497.367 26.125C497.867 24.6094 498.602 23.3203 499.57 22.2578C500.555 21.1953 501.758 20.3906 503.18 19.8438C504.602 19.2969 506.242 19.0781 508.102 19.1875C509.383 19.2812 510.562 19.6484 511.641 20.2891C512.719 20.9297 513.656 21.7578 514.453 22.7734C515.266 23.7734 515.914 24.9219 516.398 26.2188C516.898 27.5156 517.203 28.8672 517.312 30.2734L502.102 34.3984ZM501.656 30.625C501.656 30.8438 501.656 31.0625 501.656 31.2812C501.656 31.4844 501.672 31.6953 501.703 31.9141L511.992 28.1641C511.648 27.0391 511.258 26.0781 510.82 25.2812C510.398 24.4688 509.953 23.8047 509.484 23.2891C509.016 22.7734 508.539 22.3984 508.055 22.1641C507.586 21.9141 507.133 21.7891 506.695 21.7891C506.039 21.7891 505.461 21.9141 504.961 22.1641C504.461 22.4141 504.023 22.7578 503.648 23.1953C503.289 23.6172 502.977 24.1172 502.711 24.6953C502.461 25.2734 502.258 25.8906 502.102 26.5469C501.945 27.2031 501.828 27.8828 501.75 28.5859C501.688 29.2734 501.656 29.9531 501.656 30.625ZM525.164 34.3984C525.367 35.2734 525.641 36.1328 525.984 36.9766C526.328 37.8047 526.75 38.5469 527.25 39.2031C527.75 39.8594 528.328 40.3906 528.984 40.7969C529.641 41.2031 530.383 41.4062 531.211 41.4062C532.305 41.4062 533.258 41.1797 534.07 40.7266C534.883 40.2734 535.547 39.7031 536.062 39.0156C536.578 38.3125 536.938 37.5469 537.141 36.7188C537.344 35.875 537.383 35.0703 537.258 34.3047C537.695 34.4766 538.055 34.7031 538.336 34.9844C538.633 35.2656 538.859 35.5781 539.016 35.9219C539.188 36.25 539.305 36.5938 539.367 36.9531C539.43 37.2969 539.461 37.6328 539.461 37.9609C539.461 38.7109 539.242 39.4375 538.805 40.1406C538.367 40.8281 537.75 41.4453 536.953 41.9922C536.172 42.5234 535.242 42.9531 534.164 43.2812C533.086 43.6094 531.906 43.7734 530.625 43.7734C528.906 43.7734 527.367 43.4375 526.008 42.7656C524.664 42.0938 523.523 41.1875 522.586 40.0469C521.648 38.8906 520.93 37.5391 520.43 35.9922C519.93 34.4453 519.68 32.7969 519.68 31.0469C519.68 29.2656 519.93 27.625 520.43 26.125C520.93 24.6094 521.664 23.3203 522.633 22.2578C523.617 21.1953 524.82 20.3906 526.242 19.8438C527.664 19.2969 529.305 19.0781 531.164 19.1875C532.445 19.2812 533.625 19.6484 534.703 20.2891C535.781 20.9297 536.719 21.7578 537.516 22.7734C538.328 23.7734 538.977 24.9219 539.461 26.2188C539.961 27.5156 540.266 28.8672 540.375 30.2734L525.164 34.3984ZM524.719 30.625C524.719 30.8438 524.719 31.0625 524.719 31.2812C524.719 31.4844 524.734 31.6953 524.766 31.9141L535.055 28.1641C534.711 27.0391 534.32 26.0781 533.883 25.2812C533.461 24.4688 533.016 23.8047 532.547 23.2891C532.078 22.7734 531.602 22.3984 531.117 22.1641C530.648 21.9141 530.195 21.7891 529.758 21.7891C529.102 21.7891 528.523 21.9141 528.023 22.1641C527.523 22.4141 527.086 22.7578 526.711 23.1953C526.352 23.6172 526.039 24.1172 525.773 24.6953C525.523 25.2734 525.32 25.8906 525.164 26.5469C525.008 27.2031 524.891 27.8828 524.812 28.5859C524.75 29.2734 524.719 29.9531 524.719 30.625ZM549.961 22.5156C550.32 22.0781 550.711 21.6797 551.133 21.3203C551.555 20.9453 552.016 20.625 552.516 20.3594C553.016 20.0781 553.547 19.8594 554.109 19.7031C554.688 19.5469 555.305 19.4688 555.961 19.4688C557.164 19.5156 558.305 19.7969 559.383 20.3125C560.477 20.8281 561.43 21.5703 562.242 22.5391C563.07 23.4922 563.727 24.6719 564.211 26.0781C564.695 27.4688 564.938 29.0625 564.938 30.8594C564.938 33.0469 564.68 34.9609 564.164 36.6016C563.648 38.2422 562.945 39.6094 562.055 40.7031C561.164 41.7812 560.117 42.5938 558.914 43.1406C557.727 43.6875 556.453 43.9609 555.094 43.9609C553.906 43.9609 552.805 43.7578 551.789 43.3516C550.773 42.9453 549.891 42.3828 549.141 41.6641L548.906 46.9375L553.594 49.4688L542.086 51.4375L545.625 47.8984L544.664 22.7969L540.398 21.1094L550.102 19.4688L549.961 22.5156ZM555.234 22.4453C555.016 22.4453 554.703 22.4844 554.297 22.5625C553.891 22.6406 553.43 22.8203 552.914 23.1016C552.414 23.3828 551.883 23.7891 551.32 24.3203C550.773 24.8516 550.25 25.5703 549.75 26.4766L549.281 38.1484C549.781 38.9297 550.391 39.5781 551.109 40.0938C551.844 40.5938 552.656 40.8438 553.547 40.8438C554.609 40.8438 555.523 40.5781 556.289 40.0469C557.055 39.5156 557.68 38.7812 558.164 37.8438C558.664 36.8906 559.023 35.7734 559.242 34.4922C559.477 33.2109 559.594 31.8203 559.594 30.3203C559.594 29.2266 559.5 28.2031 559.312 27.25C559.125 26.2812 558.852 25.4453 558.492 24.7422C558.133 24.0234 557.68 23.4609 557.133 23.0547C556.586 22.6484 555.953 22.4453 555.234 22.4453ZM573.211 34.3984C573.414 35.2734 573.688 36.1328 574.031 36.9766C574.375 37.8047 574.797 38.5469 575.297 39.2031C575.797 39.8594 576.375 40.3906 577.031 40.7969C577.688 41.2031 578.43 41.4062 579.258 41.4062C580.352 41.4062 581.305 41.1797 582.117 40.7266C582.93 40.2734 583.594 39.7031 584.109 39.0156C584.625 38.3125 584.984 37.5469 585.188 36.7188C585.391 35.875 585.43 35.0703 585.305 34.3047C585.742 34.4766 586.102 34.7031 586.383 34.9844C586.68 35.2656 586.906 35.5781 587.062 35.9219C587.234 36.25 587.352 36.5938 587.414 36.9531C587.477 37.2969 587.508 37.6328 587.508 37.9609C587.508 38.7109 587.289 39.4375 586.852 40.1406C586.414 40.8281 585.797 41.4453 585 41.9922C584.219 42.5234 583.289 42.9531 582.211 43.2812C581.133 43.6094 579.953 43.7734 578.672 43.7734C576.953 43.7734 575.414 43.4375 574.055 42.7656C572.711 42.0938 571.57 41.1875 570.633 40.0469C569.695 38.8906 568.977 37.5391 568.477 35.9922C567.977 34.4453 567.727 32.7969 567.727 31.0469C567.727 29.2656 567.977 27.625 568.477 26.125C568.977 24.6094 569.711 23.3203 570.68 22.2578C571.664 21.1953 572.867 20.3906 574.289 19.8438C575.711 19.2969 577.352 19.0781 579.211 19.1875C580.492 19.2812 581.672 19.6484 582.75 20.2891C583.828 20.9297 584.766 21.7578 585.562 22.7734C586.375 23.7734 587.023 24.9219 587.508 26.2188C588.008 27.5156 588.312 28.8672 588.422 30.2734L573.211 34.3984ZM572.766 30.625C572.766 30.8438 572.766 31.0625 572.766 31.2812C572.766 31.4844 572.781 31.6953 572.812 31.9141L583.102 28.1641C582.758 27.0391 582.367 26.0781 581.93 25.2812C581.508 24.4688 581.062 23.8047 580.594 23.2891C580.125 22.7734 579.648 22.3984 579.164 22.1641C578.695 21.9141 578.242 21.7891 577.805 21.7891C577.148 21.7891 576.57 21.9141 576.07 22.1641C575.57 22.4141 575.133 22.7578 574.758 23.1953C574.398 23.6172 574.086 24.1172 573.82 24.6953C573.57 25.2734 573.367 25.8906 573.211 26.5469C573.055 27.2031 572.938 27.8828 572.859 28.5859C572.797 29.2734 572.766 29.9531 572.766 30.625ZM607.078 27.0156C606.938 26.4375 606.734 25.9453 606.469 25.5391C606.219 25.1328 605.93 24.7969 605.602 24.5312C605.289 24.25 604.953 24.0391 604.594 23.8984C604.234 23.7422 603.875 23.625 603.516 23.5469C602.672 23.375 601.773 23.3828 600.82 23.5703C600.492 23.6797 600.141 23.8516 599.766 24.0859C599.438 24.3047 599.062 24.6016 598.641 24.9766C598.219 25.3359 597.766 25.8203 597.281 26.4297L597.703 40.0234L601.922 42.1328L589.5 43.2344L592.711 39.9766L594.023 23.6641L589.031 21.3906L597.094 19.8672L597.188 22.7969C597.734 22.1406 598.297 21.6016 598.875 21.1797C599.453 20.7578 599.977 20.4141 600.445 20.1484C600.992 19.8516 601.523 19.625 602.039 19.4688C602.977 19.25 603.93 19.1641 604.898 19.2109C605.305 19.2266 605.727 19.2734 606.164 19.3516C606.617 19.4297 607.07 19.5547 607.523 19.7266C607.992 19.8828 608.445 20.1016 608.883 20.3828C609.32 20.6484 609.742 20.9844 610.148 21.3906L607.078 27.0156Z" fill="white"/>
</svg>
